<svg width="47" height="23" viewBox="0 0 47 23" fill="none" xmlns="http://www.w3.org/2000/svg">
<path d="M35.0625 0C31.2309 0 28.1756 1.92469 26.2875 3.54L26.2209 3.59719V3.59719C25.5842 4.28949 25.4824 5.31962 25.9713 6.12317L26.2261 6.54184C26.8843 7.6235 28.3821 7.80215 29.2762 6.90563V6.90563C31.1147 5.35313 33.1669 4.5 35.0625 4.5C38.8875 4.5 42 7.52812 42 11.25C42 14.9719 38.8875 18 35.0625 18C29.25 18 25.2994 10.3172 25.26 10.2394C25.0313 9.77719 20.0212 0 11.4375 0C5.13094 0 0 5.04656 0 11.25C0 17.4534 5.13094 22.5 11.4375 22.5C14.5266 22.5 17.5669 21.2709 20.2303 18.945L20.2875 18.8944V18.8944C20.9193 18.2071 21.0201 17.1846 20.5346 16.3872L20.2796 15.9681C19.618 14.8813 18.1129 14.7019 17.2144 15.6028V15.6028C15.375 17.1937 13.4306 18 11.4375 18C7.6125 18 4.5 14.9719 4.5 11.25C4.5 7.52812 7.6125 4.5 11.4375 4.5C17.25 4.5 21.2006 12.1828 21.24 12.2606C21.4687 12.7228 26.4788 22.5 35.0625 22.5C41.3691 22.5 46.5 17.4534 46.5 11.25C46.5 5.04656 41.3691 0 35.0625 0Z" fill="#FF4572"/>
</svg>
